<svg width="80" height="80" viewBox="0 0 80 80" fill="none" xmlns="http://www.w3.org/2000/svg">
<path d="M68.28 11.72L62.64 17.36C68.4 23.16 72 31.16 72 40C72 57.68 57.68 72 40 72C22.32 72 8 57.68 8 40C8 23.68 20.2 10.24 36 8.28V16.36C24.64 18.28 16 28.12 16 40C16 53.24 26.76 64 40 64C53.24 64 64 53.24 64 40C64 33.36 61.32 27.36 56.96 23.04L51.32 28.68C54.2 31.6 56 35.6 56 40C56 48.84 48.84 56 40 56C31.16 56 24 48.84 24 40C24 32.56 29.12 26.36 36 24.56V33.12C33.6 34.52 32 37.04 32 40C32 44.4 35.6 48 40 48C44.4 48 48 44.4 48 40C48 37.04 46.4 34.48 44 33.12V0H40C17.92 0 0 17.92 0 40C0 62.08 17.92 80 40 80C62.08 80 80 62.08 80 40C80 28.96 75.52 18.96 68.28 11.72Z" fill="white"/>
</svg>
