<svg width="31" height="30" viewBox="0 0 31 30" fill="none" xmlns="http://www.w3.org/2000/svg">
<path d="M13.3395 13.2871H13.3394C12.9903 13.2871 12.6556 13.4258 12.4088 13.6726C12.162 13.9195 12.0233 14.2542 12.0233 14.6033C12.0234 14.9523 12.162 15.2871 12.4088 15.5339C12.6556 15.7807 12.9904 15.9193 13.3394 15.9193C13.6885 15.9193 14.0232 15.7807 14.27 15.5339C14.5169 15.2871 14.6555 14.9523 14.6555 14.6033C14.6556 14.2542 14.5169 13.9195 14.2701 13.6726C14.0233 13.4258 13.6886 13.2871 13.3395 13.2871V13.2871ZM18.0324 13.2871C17.7449 13.2628 17.4569 13.3258 17.2059 13.4678C16.9549 13.6099 16.7526 13.8245 16.6255 14.0835C16.4985 14.3424 16.4526 14.6337 16.4939 14.9192C16.5351 15.2046 16.6616 15.471 16.8568 15.6834C17.0519 15.8958 17.3067 16.0443 17.5877 16.1095C17.8686 16.1747 18.1628 16.1535 18.4315 16.0488C18.7003 15.9441 18.9311 15.7606 19.0939 15.5225C19.2566 15.2844 19.3437 15.0026 19.3437 14.7142C19.3514 14.5344 19.3235 14.3548 19.2618 14.1857C19.2 14.0167 19.1056 13.8614 18.9838 13.7289C18.862 13.5964 18.7153 13.4891 18.552 13.4133C18.3888 13.3375 18.2122 13.2946 18.0324 13.2871ZM24.2808 2.5H7.05243C6.70545 2.50082 6.36202 2.56998 6.04177 2.70353C5.72152 2.83708 5.43071 3.03241 5.18594 3.27836C4.94118 3.52431 4.74727 3.81606 4.61527 4.13696C4.48327 4.45786 4.41577 4.80162 4.41663 5.1486V22.5314C4.41579 22.8784 4.48329 23.2222 4.6153 23.543C4.7473 23.8639 4.94122 24.1557 5.18598 24.4016C5.43074 24.6476 5.72155 24.8429 6.04179 24.9764C6.36204 25.11 6.70546 25.1791 7.05243 25.18H21.6324L20.9509 22.8014L22.5966 24.3314L24.1523 25.7714L26.9166 28.2143V5.1486C26.9175 4.80162 26.85 4.45786 26.718 4.13696C26.586 3.81606 26.3921 3.52431 26.1473 3.27836C25.9026 3.03241 25.6117 2.83708 25.2915 2.70353C24.9712 2.56998 24.6278 2.50082 24.2808 2.5V2.5ZM19.3181 19.2914V19.2915C19.3181 19.2915 18.8551 18.7386 18.4694 18.25C19.4014 18.0305 20.2257 17.4886 20.7966 16.72C20.334 17.0279 19.838 17.2824 19.3181 17.4785C18.7199 17.7338 18.0944 17.9193 17.4537 18.0314C16.3526 18.2341 15.2234 18.2298 14.1238 18.0186C13.4783 17.8922 12.8456 17.7072 12.2337 17.4657C11.9112 17.3417 11.5976 17.1956 11.2951 17.0286C11.2565 17.0028 11.2181 16.99 11.1795 16.9643C11.1601 16.9547 11.1427 16.9416 11.1281 16.9257C10.8967 16.7972 10.7679 16.7071 10.7679 16.7071C11.3182 17.4596 12.1141 17.9962 13.018 18.2243C12.6324 18.7129 12.1567 19.2914 12.1567 19.2914C11.3929 19.312 10.6358 19.1445 9.95205 18.8037C9.26825 18.4629 8.6787 17.9593 8.2353 17.3371C8.27704 14.7306 8.91007 12.1676 10.0866 9.84139C11.1221 9.02817 12.3845 8.55646 13.6995 8.49139L13.8279 8.64574C12.5908 8.95186 11.4363 9.52692 10.4466 10.33C10.4466 10.33 10.7295 10.1757 11.2052 9.95712C12.1294 9.53522 13.1144 9.26188 14.1239 9.14719C14.1959 9.13221 14.2691 9.12358 14.3426 9.1214C15.2041 9.00917 16.076 9.00056 16.9396 9.09576C18.2978 9.25084 19.6124 9.67011 20.8096 10.33C19.8701 9.56524 18.779 9.00868 17.6084 8.69712L17.7883 8.49151C19.1033 8.55653 20.3657 9.02825 21.4011 9.84151C22.5777 12.1677 23.2108 14.7307 23.2526 17.3372C22.8056 17.9588 22.2134 18.4617 21.5277 18.8023C20.842 19.1429 20.0835 19.3108 19.3181 19.2914Z" fill="white"/>
</svg>
