<svg width="23" height="23" viewBox="0 0 23 23" fill="none" xmlns="http://www.w3.org/2000/svg">
<path d="M20.7445 0.222323H1.92227C1.71069 0.219385 1.50061 0.258154 1.30401 0.336416C1.10742 0.414679 0.928166 0.530902 0.776493 0.678448C0.62482 0.825994 0.503698 1.00197 0.420043 1.19633C0.336388 1.3907 0.291839 1.59963 0.28894 1.81121V20.8557C0.291839 21.0672 0.336388 21.2762 0.420043 21.4705C0.503698 21.6649 0.62482 21.8409 0.776493 21.9884C0.928166 22.136 1.10742 22.2522 1.30401 22.3305C1.50061 22.4087 1.71069 22.4475 1.92227 22.4445H20.7445C20.9561 22.4475 21.1662 22.4087 21.3628 22.3305C21.5594 22.2522 21.7386 22.136 21.8903 21.9884C22.042 21.8409 22.1631 21.6649 22.2467 21.4705C22.3304 21.2762 22.3749 21.0672 22.3778 20.8557V1.81121C22.3749 1.59963 22.3304 1.3907 22.2467 1.19633C22.1631 1.00197 22.042 0.825994 21.8903 0.678448C21.7386 0.530902 21.5594 0.414679 21.3628 0.336416C21.1662 0.258154 20.9561 0.219385 20.7445 0.222323ZM6.98894 18.8223H3.65561V8.82232H6.98894V18.8223ZM5.32227 7.42232C4.86257 7.42232 4.42169 7.2397 4.09662 6.91464C3.77156 6.58958 3.58894 6.1487 3.58894 5.68899C3.58894 5.22928 3.77156 4.7884 4.09662 4.46334C4.42169 4.13827 4.86257 3.95566 5.32227 3.95566C5.56638 3.92797 5.81358 3.95216 6.04769 4.02664C6.2818 4.10111 6.49754 4.2242 6.68078 4.38784C6.86402 4.55147 7.01064 4.75197 7.11102 4.97619C7.2114 5.20042 7.26329 5.44332 7.26329 5.68899C7.26329 5.93466 7.2114 6.17756 7.11102 6.40179C7.01064 6.62601 6.86402 6.82651 6.68078 6.99014C6.49754 7.15378 6.2818 7.27686 6.04769 7.35134C5.81358 7.42582 5.56638 7.45001 5.32227 7.42232ZM19.0112 18.8223H15.6778V13.4557C15.6778 12.1112 15.2001 11.2334 13.9889 11.2334C13.6141 11.2362 13.2492 11.3537 12.9432 11.5703C12.6373 11.7868 12.405 12.092 12.2778 12.4445C12.1909 12.7057 12.1532 12.9807 12.1667 13.2557V18.8112H8.83339C8.83339 18.8112 8.83339 9.72232 8.83339 8.81121H12.1667V10.2223C12.4695 9.69689 12.9099 9.26401 13.4405 8.97033C13.9711 8.67664 14.5718 8.53327 15.1778 8.55566C17.4001 8.55566 19.0112 9.98899 19.0112 13.0668V18.8223Z" fill="white"/>
</svg>
