<svg width="28" height="27" viewBox="0 0 28 27" fill="none" xmlns="http://www.w3.org/2000/svg">
<path d="M16.5113 18.7412C15.7534 19.297 14.8143 19.548 13.88 19.4443C12.947 19.5482 12.009 19.2976 11.252 18.7422C11.0434 18.5351 10.7611 18.419 10.4671 18.4194C10.173 18.4198 9.89112 18.5367 9.68306 18.7445C9.47499 18.9523 9.35772 19.234 9.3569 19.5281C9.35608 19.8221 9.47178 20.1045 9.67867 20.3134C10.2532 20.808 10.9209 21.1825 11.6425 21.4149C12.3641 21.6473 13.1249 21.7328 13.88 21.6665C14.6353 21.7325 15.3961 21.6469 16.1178 21.4148C16.8395 21.1826 17.5075 20.8085 18.0825 20.3145C18.1862 20.2114 18.2685 20.0889 18.3248 19.954C18.3811 19.819 18.4102 19.6743 18.4104 19.5281C18.4107 19.3819 18.3821 19.2371 18.3263 19.1019C18.2705 18.9668 18.1887 18.844 18.0853 18.7405C17.982 18.6371 17.8593 18.555 17.7243 18.499C17.5892 18.4431 17.4444 18.4143 17.2982 18.4143C17.152 18.4144 17.0072 18.4433 16.8722 18.4994C16.7372 18.5555 16.6146 18.6376 16.5113 18.7412L16.5113 18.7412ZM10.7228 16.6683C10.9426 16.6683 11.1574 16.603 11.3401 16.4809C11.5227 16.3588 11.6651 16.1852 11.7491 15.9821C11.8332 15.7791 11.8551 15.5557 11.8122 15.3401C11.7692 15.1246 11.6634 14.9267 11.5079 14.7713C11.3525 14.616 11.1545 14.5102 10.9389 14.4674C10.7234 14.4246 10.5 14.4467 10.297 14.5308C10.094 14.615 9.92048 14.7574 9.79845 14.9402C9.67641 15.123 9.61131 15.3378 9.61137 15.5576C9.6117 15.8522 9.72892 16.1346 9.9373 16.3429C10.1457 16.5511 10.4282 16.6682 10.7228 16.6683ZM17.3895 14.4461C17.1697 14.4461 16.9549 14.5112 16.7721 14.6332C16.5894 14.7552 16.4469 14.9287 16.3627 15.1317C16.2786 15.3347 16.2565 15.5581 16.2993 15.7737C16.3421 15.9892 16.4479 16.1872 16.6032 16.3427C16.7586 16.4981 16.9565 16.604 17.1721 16.6469C17.3876 16.6899 17.611 16.6679 17.814 16.5839C18.0171 16.4999 18.1907 16.3575 18.3128 16.1748C18.435 15.9921 18.5002 15.7773 18.5003 15.5576C18.4999 15.263 18.3828 14.9806 18.1746 14.7722C17.9664 14.5639 17.684 14.4466 17.3895 14.4461ZM26.0556 13.089C26.0576 12.2078 25.7818 11.3484 25.2674 10.633C24.753 9.91754 24.0262 9.38245 23.1902 9.10379C22.3542 8.82513 21.4517 8.81708 20.6109 9.08078C19.7701 9.34449 19.0338 9.86652 18.5067 10.5727C17.3962 10.29 16.2615 10.112 15.1178 10.041L16.0686 3.70212L18.3881 4.49083C18.3987 5.37319 18.7591 6.21527 19.3901 6.83211C20.0211 7.44895 20.8712 7.7901 21.7535 7.78063C22.6359 7.77116 23.4784 7.41184 24.0961 6.7816C24.7137 6.15136 25.0559 5.30174 25.0476 4.41935V4.39437C25.0263 3.52162 24.6668 2.69127 24.0448 2.07863C23.4229 1.46599 22.5872 1.11901 21.7142 1.11095C21.2133 1.11469 20.7198 1.23215 20.271 1.45446C19.8221 1.67677 19.4296 1.99813 19.123 2.39428L15.525 1.17063C15.371 1.11793 15.2073 1.09975 15.0455 1.11736C14.8837 1.13497 14.7278 1.18794 14.5887 1.27253C14.4497 1.35712 14.3309 1.47125 14.2409 1.60684C14.1509 1.74243 14.0918 1.89615 14.0678 2.05713L12.8717 10.0298C11.6193 10.0847 10.3757 10.2666 9.16004 10.5727C8.51634 9.70443 7.56176 9.11879 6.49609 8.93835C5.43041 8.75792 4.33625 8.99666 3.4426 9.60462C2.54895 10.2126 1.92509 11.1426 1.70158 12.2001C1.47807 13.2576 1.67225 14.3605 2.24346 15.2781C1.83405 16.048 1.6171 16.9056 1.61115 17.7776C1.61115 22.1385 6.98004 25.5554 13.8334 25.5554C20.6867 25.5554 26.0556 22.1385 26.0556 17.7776C26.0497 16.9059 25.8329 16.0486 25.4238 15.2788C25.832 14.621 26.0506 13.8632 26.0556 13.089ZM21.7142 3.33317C21.934 3.33317 22.1488 3.39834 22.3315 3.52043C22.5143 3.64252 22.6567 3.81605 22.7408 4.01908C22.8249 4.22211 22.8469 4.44552 22.804 4.66105C22.7611 4.87659 22.6553 5.07457 22.4999 5.22996C22.3445 5.38535 22.1465 5.49117 21.931 5.53405C21.7155 5.57692 21.4921 5.55491 21.289 5.47082C21.086 5.38672 20.9125 5.24431 20.7904 5.06158C20.6683 4.87886 20.6031 4.66404 20.6031 4.44428C20.6079 4.15109 20.7265 3.87125 20.9338 3.6639C21.1412 3.45656 21.421 3.33796 21.7142 3.33317ZM5.81145 11.111C6.15677 11.1152 6.49479 11.2109 6.79114 11.3882C5.71864 11.8494 4.72571 12.4771 3.84904 13.2481C3.8446 13.1949 3.83337 13.1425 3.83337 13.089C3.83404 12.5646 4.04266 12.0619 4.41348 11.6911C4.7843 11.3202 5.28704 11.1116 5.81145 11.111ZM13.8334 23.3332C8.41236 23.3332 3.83337 20.7887 3.83337 17.7776C3.83337 14.7665 8.41236 12.2221 13.8334 12.2221C19.2544 12.2221 23.8334 14.7665 23.8334 17.7776C23.8334 20.7887 19.2544 23.3332 13.8334 23.3332ZM23.8177 13.2481C22.9411 12.4771 21.9481 11.8494 20.8756 11.3882C21.172 11.2109 21.51 11.1152 21.8553 11.111C22.3797 11.1116 22.8825 11.3202 23.2533 11.6911C23.6241 12.0619 23.8327 12.5646 23.8334 13.089C23.8334 13.1425 23.8222 13.195 23.8177 13.2481Z" fill="white"/>
</svg>
