<svg width="26" height="22" viewBox="0 0 26 22" fill="none" xmlns="http://www.w3.org/2000/svg">
<path d="M25.1666 3.24977C24.227 3.65739 23.2334 3.92685 22.2166 4.04977C23.2893 3.40892 24.0932 2.40075 24.4791 1.21227C23.4711 1.81235 22.3676 2.23514 21.2166 2.46227C20.4473 1.62799 19.4228 1.07264 18.3039 0.883338C17.1849 0.694032 16.0348 0.881472 15.0339 1.41626C14.0329 1.95105 13.2378 2.80294 12.7732 3.83832C12.3086 4.8737 12.2007 6.03401 12.4666 7.13727C10.4284 7.03418 8.43468 6.50346 6.61494 5.5796C4.79521 4.65574 3.19018 3.35939 1.90413 1.77477C1.45305 2.56248 1.21602 3.45455 1.21663 4.36227C1.21503 5.20525 1.4219 6.03554 1.81882 6.77923C2.21574 7.52291 2.7904 8.15691 3.49163 8.62477C2.6766 8.6026 1.87898 8.3839 1.16663 7.98727V8.04977C1.17273 9.23089 1.58662 10.3736 2.33827 11.2847C3.08992 12.1958 4.1332 12.8193 5.29163 13.0498C4.8457 13.1855 4.38272 13.257 3.91663 13.2623C3.59399 13.2585 3.27215 13.2292 2.95413 13.1748C3.28401 14.1908 3.9224 15.0787 4.78047 15.715C5.63853 16.3512 6.6736 16.7042 7.74163 16.7248C5.93813 18.1439 3.71148 18.9183 1.41663 18.9248C0.998795 18.9261 0.581295 18.9011 0.166626 18.8498C2.50966 20.3626 5.24014 21.1657 8.02913 21.1623C9.95374 21.1823 11.863 20.8185 13.6455 20.0924C15.428 19.3662 17.0479 18.2921 18.4106 16.9329C19.7734 15.5737 20.8516 13.9565 21.5823 12.1759C22.3131 10.3953 22.6817 8.48693 22.6666 6.56227C22.6666 6.34977 22.6666 6.12477 22.6666 5.89977C23.6475 5.16829 24.4935 4.27155 25.1666 3.24977Z" fill="white"/>
</svg>
