<svg width="24" height="24" viewBox="0 0 24 24" fill="none" xmlns="http://www.w3.org/2000/svg">
<path d="M6.52277 19.5946V21.6092L7.8949 20.1341L10.7995 17.0116L10.7995 17.0117L10.8045 17.0062C10.8261 16.9825 10.8472 16.9687 10.8643 16.961C10.8811 16.9535 10.8959 16.951 10.9086 16.9511C10.9212 16.9513 10.9362 16.9541 10.9534 16.9622C10.9708 16.9705 10.9922 16.9852 11.0138 17.0098C11.0356 17.0346 11.0563 17.0682 11.0713 17.1103C11.0864 17.1525 11.0944 17.1998 11.0935 17.2488C11.0927 17.2978 11.083 17.3443 11.0668 17.3851C11.0506 17.4258 11.0293 17.4575 11.0075 17.4805L11.0075 17.4804L11.0025 17.4858L6.43765 22.3911L6.43758 22.3912C6.39591 22.436 6.35769 22.4446 6.33606 22.4446C6.31443 22.4446 6.27621 22.436 6.23454 22.3912L6.23447 22.3911L1.66958 17.4858L1.6696 17.4858L1.66458 17.4805C1.64285 17.4575 1.62149 17.4258 1.6053 17.3851C1.58909 17.3443 1.57943 17.2978 1.57857 17.2488C1.57772 17.1998 1.58575 17.1525 1.60078 17.1103C1.6158 17.0682 1.63653 17.0346 1.65827 17.0098C1.67987 16.9852 1.70127 16.9705 1.71873 16.9622C1.73588 16.9541 1.75088 16.9513 1.76356 16.9511C1.77623 16.951 1.79097 16.9535 1.80778 16.961C1.82489 16.9687 1.84603 16.9825 1.86763 17.0062L1.8676 17.0062L1.87289 17.0119L4.77877 20.133L6.15065 21.6064V19.5932V1.94378C6.15065 1.84223 6.18784 1.759 6.2328 1.70924C6.27535 1.66214 6.31481 1.65322 6.33671 1.65322C6.35861 1.65322 6.39807 1.66214 6.44062 1.70924C6.48558 1.759 6.52277 1.84223 6.52277 1.94378V19.5946ZM17.9728 1.70677L17.9728 1.70669C18.0145 1.66191 18.0527 1.65329 18.0743 1.65329C18.096 1.65329 18.1342 1.6619 18.1759 1.70669L18.1759 1.70677L22.7374 6.60839C22.7813 6.6575 22.8178 6.73879 22.8187 6.83838C22.8196 6.93925 22.7836 7.02298 22.7389 7.07388C22.6965 7.12223 22.6566 7.13209 22.6346 7.13256C22.6132 7.13302 22.5757 7.12538 22.5343 7.0825L19.6331 3.96506L18.2611 2.4908V4.50472V22.1541C18.2611 22.2557 18.2239 22.3389 18.1789 22.3887C18.1364 22.4357 18.0969 22.4447 18.075 22.4447C18.0531 22.4447 18.0136 22.4357 17.9711 22.3887C17.9261 22.3389 17.8889 22.2557 17.8889 22.1541V4.50472V2.49146L16.5171 3.96493L13.6144 7.08249C13.573 7.12538 13.5355 7.13302 13.5141 7.13256C13.4921 7.13209 13.4522 7.12223 13.4098 7.07388C13.3651 7.02298 13.3291 6.93925 13.33 6.83838C13.3309 6.73878 13.3674 6.65749 13.4113 6.60838L17.9728 1.70677Z" fill="white" stroke="white" stroke-width="1.58427"/>
</svg>
