<svg width="29" height="39" viewBox="0 0 29 39" fill="none" xmlns="http://www.w3.org/2000/svg">
<path fill-rule="evenodd" clip-rule="evenodd" d="M22.88 8.67261C26.6591 10.5498 29.3299 12.979 28.5021 16.9209C27.882 19.789 26.283 21.0342 24.1916 21.2907C26.8693 23.166 28.082 25.6685 26.4691 29.6079C24.4603 34.5483 20.4932 34.542 15.3165 32.9139L13.7112 38.1926L10.7121 37.074L12.3174 31.7954C11.9917 31.6685 11.6477 31.5445 11.2931 31.419C10.8224 31.25 10.3358 31.075 9.85401 30.8775L8.24878 36.1562L5.2543 35.0369L6.85952 29.7583L0.902662 27.386L2.58538 23.7206C2.58538 23.7206 4.83444 24.6213 4.80108 24.5797C5.63556 24.8874 6.07771 24.346 6.26675 23.9503L8.83595 15.4902L10.6993 9.48209C10.8007 8.8203 10.6335 7.91697 9.41502 7.43627C9.50002 7.39522 7.21823 6.61582 7.21823 6.61582L8.2902 3.0812L14.4387 5.37219L16.0106 0.202534L19.1062 1.35723L17.5343 6.52689C18.1384 6.73373 18.7254 6.96087 19.3208 7.18878L19.9104 7.41447L21.4803 2.24408L24.4951 3.36853L22.88 8.67261ZM14.1558 16.2413L14.3041 16.3017C16.1013 17.0721 21.4293 19.3473 22.5097 15.8353C23.523 12.4925 18.8906 10.8788 16.7409 10.127C16.4848 10.0383 16.2642 9.96298 16.0935 9.89661L14.1538 16.2405L14.1558 16.2413ZM11.2436 26.6917L10.983 26.5819L12.9228 20.238C13.1125 20.3139 13.3521 20.3988 13.6312 20.4985C16.1662 21.4116 21.8286 23.4476 20.7738 26.804C19.7369 30.2958 13.457 27.6301 11.2436 26.6917Z" fill="white"/>
</svg>
