<svg width="50" height="50" viewBox="0 0 50 50" fill="none" xmlns="http://www.w3.org/2000/svg">
<circle cx="25" cy="25" r="25" fill="white"/>
<g clip-path="url(#clip0_78_366)">
<path d="M40.2042 10.2941L26.7425 20.2548L29.2458 14.3847L40.2042 10.2941Z" fill="#E17726"/>
<path d="M10.3175 10.3059L21.2466 14.3854L23.6235 20.3325L10.3175 10.3059ZM34.7868 31.4777L40.7366 31.5909L38.6572 38.6549L31.3971 36.656L34.7868 31.4777ZM15.7033 31.4777L19.0804 36.656L11.8325 38.655L9.76569 31.5909L15.7033 31.4777Z" fill="#E27625"/>
<path d="M23.3004 18.8176L23.5435 26.671L16.2676 26.3399L18.3373 23.2176L18.3635 23.1876L23.3004 18.8176ZM27.1145 18.73L32.1267 23.1879L32.1527 23.2178L34.2223 26.3401L26.948 26.671L27.1145 18.73ZM19.2935 31.5005L23.2663 34.596L18.6513 36.824L19.2935 31.5005ZM31.1974 31.5L31.8262 36.8241L27.2241 34.5957L31.1974 31.5Z" fill="#E27625"/>
<path d="M27.3257 34.3042L31.9957 36.5654L27.6517 38.6299L27.6968 37.2654L27.3257 34.3042ZM23.1631 34.3051L22.8066 37.2431L22.8359 38.6283L18.4817 36.5654L23.1631 34.3051Z" fill="#D5BFB2"/>
<path d="M21.8146 27.696L23.0349 30.2607L18.8801 29.0435L21.8146 27.696ZM28.6755 27.6962L31.6238 29.0435L27.4554 30.2603L28.6755 27.6962Z" fill="#233447"/>
<path d="M19.611 31.4743L18.9395 36.9939L15.3398 31.595L19.611 31.4743ZM30.8794 31.4744L35.1507 31.595L31.5376 36.9941L30.8794 31.4744ZM34.3274 26.0278L31.219 29.1958L28.8223 28.1006L27.6749 30.5129L26.9227 26.3647L34.3274 26.0278ZM16.1612 26.0278L23.5674 26.3647L22.8151 30.5129L21.6674 28.101L19.2835 29.196L16.1612 26.0278Z" fill="#CC6228"/>
<path d="M15.9517 25.3777L19.4686 28.9464L19.5904 32.4696L15.9517 25.3777ZM34.542 25.3713L30.8967 32.4759L31.0339 28.9464L34.542 25.3713ZM23.3955 25.5951L23.537 26.486L23.8868 28.7055L23.6619 35.5223L22.5988 30.0462L22.5984 29.9896L23.3955 25.5951ZM27.0929 25.5827L27.892 29.9896L27.8917 30.0462L26.8259 35.536L26.7837 34.1629L26.6174 28.6651L27.0929 25.5827Z" fill="#E27525"/>
<path d="M31.3466 28.8047L31.2276 31.8657L27.5175 34.7562L26.7675 34.2263L27.6082 29.8961L31.3466 28.8047ZM19.1565 28.8047L22.8819 29.8961L23.7225 34.2263L22.9725 34.7562L19.2624 31.8654L19.1565 28.8047Z" fill="#F5841F"/>
<path d="M17.7718 35.8895L22.5184 38.1385L22.4983 37.1781L22.8955 36.8294H27.5933L28.0048 37.1768L27.9744 38.1365L32.6909 35.8951L30.3958 37.7917L27.6207 39.6977H22.8574L20.0841 37.7838L17.7718 35.8895Z" fill="#C0AC9D"/>
<path d="M26.9858 34.0048L27.6569 34.4789L28.0501 37.6167L27.481 37.1361H23.0109L22.4526 37.6263L22.833 34.4792L23.5043 34.0048H26.9858Z" fill="#161616"/>
<path d="M39.3154 10.5699L40.9314 15.4175L39.9222 20.3191L40.6408 20.8734L39.6684 21.6153L40.3993 22.1798L39.4315 23.061L40.0256 23.4913L38.4489 25.3327L31.982 23.4498L31.926 23.4197L27.2658 19.4886L39.3154 10.5699ZM11.1748 10.5699L23.2245 19.4886L18.5642 23.4197L18.5082 23.4498L12.0413 25.3327L10.4646 23.4913L11.0582 23.0614L10.0911 22.1798L10.8205 21.6159L9.83345 20.8719L10.5792 20.3173L9.55882 15.4178L11.1748 10.5699Z" fill="#763E1A"/>
<path d="M31.6657 23.038L38.5178 25.033L40.7439 31.894H34.8708L30.8243 31.945L33.7672 26.2087L31.6657 23.038ZM18.8245 23.038L16.7227 26.2087L19.6659 31.945L15.6212 31.894H9.7587L11.9723 25.0331L18.8245 23.038ZM29.5814 14.352L27.6648 19.5283L27.2581 26.521L27.1025 28.7127L27.0901 34.3118H23.4L23.388 28.7233L23.2319 26.5191L22.825 19.5283L20.9087 14.352H29.5814Z" fill="#F5841F"/>
</g>
<defs>
<clipPath id="clip0_78_366">
<rect width="31.3725" height="29.4118" fill="white" transform="translate(9.55882 10.2941)"/>
</clipPath>
</defs>
</svg>
