<svg width="50" height="50" viewBox="0 0 50 50" fill="none" xmlns="http://www.w3.org/2000/svg">
<circle cx="25" cy="25" r="25" fill="white"/>
<path d="M26.4706 38.8327C24.1951 38.8333 21.9547 38.2726 19.9478 37.2002C17.9409 36.1278 16.2295 34.5769 14.9654 32.6849C13.7013 30.7929 12.9234 28.6183 12.7007 26.3538C12.478 24.0892 12.8174 21.8047 13.6888 19.7027C14.5602 17.6008 15.9366 15.7462 17.6962 14.3034C19.4558 12.8606 21.5441 11.8742 23.7761 11.4316C26.008 10.9889 28.3147 11.1037 30.4917 11.7658C32.6687 12.4278 34.6488 13.6167 36.2564 15.227L31.6177 19.8851C30.6039 18.8765 29.3142 18.1908 27.9111 17.9145C26.5081 17.6381 25.0546 17.7836 23.7342 18.3325C22.4137 18.8814 21.2855 19.8092 20.4918 20.9987C19.698 22.1882 19.2745 23.5861 19.2745 25.0161C19.2745 26.4461 19.698 27.8441 20.4918 29.0336C21.2855 30.2231 22.4137 31.1508 23.7342 31.6997C25.0546 32.2486 26.5081 32.3941 27.9111 32.1177C29.3142 31.8414 30.6039 31.1557 31.6177 30.1471L36.2757 34.8052C34.9879 36.0902 33.4585 37.1076 31.7757 37.7989C30.0928 38.4901 28.2898 38.8415 26.4706 38.8327Z" fill="#00A3FF"/>
</svg>
