<svg width="32" height="34" viewBox="0 0 32 34" fill="none" xmlns="http://www.w3.org/2000/svg">
<path d="M17 23C13.6863 23 11 20.3137 11 17C11 13.6863 13.6863 11 17 11C20.3137 11 23 13.6863 23 17C23 20.3137 20.3137 23 17 23Z" fill="#51A3EE"/>
<path d="M5.37629 19.0497C3.63754 19.3563 2.44572 21.0359 3.11317 22.6705C4.04501 24.9525 5.53164 26.9857 7.45895 28.5745C10.2149 30.8462 13.6909 32.0601 17.2619 31.9978C20.8329 31.9355 24.2645 30.601 26.9395 28.2344C28.8101 26.5794 30.2249 24.4955 31.0766 22.1824C31.6866 20.5255 30.4368 18.8885 28.6884 18.6428C26.9401 18.3971 25.3703 19.6697 24.5067 21.2097C24.0386 22.0444 23.4309 22.8017 22.7029 23.4458C21.1681 24.8037 19.1992 25.5693 17.1504 25.6051C15.1015 25.6408 13.1071 24.9444 11.5259 23.6409C10.7758 23.0226 10.1421 22.287 9.64508 21.4691C8.72829 19.9602 7.11504 18.7431 5.37629 19.0497Z" fill="#51A3EE"/>
<path d="M31.884 18.8745C31.9606 18.2604 32 17.6348 32 17C32 8.71573 25.2843 2 17 2C8.71573 2 2 8.71573 2 17C2 17.8147 2.06495 18.6142 2.18996 19.3937C2.87894 18.4505 3.95426 17.7772 5.11576 17.5724C6.37245 17.3508 7.51458 17.6556 8.48027 18.2253C8.42322 17.8251 8.3937 17.416 8.3937 17C8.3937 12.2469 12.2469 8.3937 17 8.3937C21.7531 8.3937 25.6063 12.2469 25.6063 17C25.6063 17.3134 25.5895 17.6229 25.5569 17.9276C26.5022 17.3243 27.6332 16.9796 28.8971 17.1573C30.0647 17.3214 31.1625 17.9564 31.884 18.8745Z" fill="#0E4F8B"/>
</svg>
