<svg width="49" height="48" viewBox="0 0 49 48" fill="none" xmlns="http://www.w3.org/2000/svg">
<path d="M1.98438 29.2901C1.98438 27.0301 2.4295 24.7921 3.2944 22.7042C4.15932 20.6161 5.42698 18.7189 7.02509 17.1208C8.62321 15.5227 10.5204 14.255 12.6084 13.3901C14.6965 12.5253 16.9344 12.0801 19.1945 12.0801V29.2901H1.98438Z" fill="#442781"/>
<path d="M1.98438 29.29C1.98438 31.5501 2.4295 33.788 3.2944 35.8761C4.15932 37.9641 5.42698 39.8613 7.02509 41.4594C8.62321 43.0575 10.5204 44.3252 12.6084 45.1901C14.6965 46.055 16.9344 46.5001 19.1945 46.5001V29.29H1.98438Z" fill="#61459C"/>
<path d="M36.4043 29.29C36.4043 31.5501 35.9595 33.788 35.0947 35.8761C34.2298 37.9641 32.9622 39.8613 31.3638 41.4594C29.7657 43.0575 27.8685 44.3252 25.7804 45.1901C23.6925 46.055 21.4545 46.5001 19.1945 46.5001V29.29H36.4043Z" fill="#A992DB"/>
<path d="M47.0156 14.422C47.0156 21.5586 41.23 27.344 34.0935 27.344H21.1716V14.422C21.1716 7.2854 26.957 1.5 34.0935 1.5C41.23 1.5 47.0156 7.2854 47.0156 14.422Z" fill="#FF7917"/>
</svg>
