<svg width="42" height="38" viewBox="0 0 42 38" fill="none" xmlns="http://www.w3.org/2000/svg">
<g clip-path="url(#clip0_98_142)">
<path d="M5.74656 28.7259C7.28673 29.8002 9.78384 29.8002 11.324 28.7259C12.8641 27.6516 12.8641 25.9098 11.324 24.8355C9.78384 23.7612 7.28673 23.7612 5.74656 24.8355C4.20639 25.9098 4.20639 27.6516 5.74656 28.7259Z" fill="#25CAAC"/>
<path d="M21.7322 14.1369C24.0425 15.7483 27.7881 15.7483 30.0984 14.1369C32.4086 12.5254 32.4086 9.91278 30.0984 8.30135C27.7881 6.68991 24.0425 6.68991 21.7322 8.30135C19.422 9.91278 19.422 12.5254 21.7322 14.1369Z" fill="#25CAAC"/>
<path d="M13.2464 21.4316C15.1716 22.7744 18.293 22.7744 20.2182 21.4316C22.1434 20.0887 22.1434 17.9115 20.2182 16.5686C18.293 15.2258 15.1716 15.2258 13.2464 16.5686C11.3212 17.9115 11.3212 20.0887 13.2464 21.4316Z" fill="#25CAAC"/>
<path d="M0.866345 20.4591C2.02147 21.2648 3.8943 21.2648 5.04943 20.4591C6.20455 19.6534 6.20455 18.3471 5.04943 17.5413C3.8943 16.7356 2.02147 16.7356 0.866345 17.5413C-0.288782 18.3471 -0.288781 19.6534 0.866345 20.4591Z" fill="#25CAAC"/>
<path d="M13.2464 5.87008C15.1716 7.21294 18.293 7.21294 20.2182 5.87008C22.1434 4.52722 22.1434 2.35001 20.2182 1.00715C18.293 -0.335716 15.1716 -0.335717 13.2464 1.00715C11.3212 2.35001 11.3212 4.52722 13.2464 5.87008Z" fill="#25CAAC"/>
<path d="M5.74655 13.1643C7.28672 14.2386 9.78383 14.2386 11.324 13.1643C12.8641 12.09 12.8641 10.3482 11.324 9.27398C9.78383 8.19969 7.28672 8.19969 5.74655 9.27398C4.20638 10.3482 4.20639 12.09 5.74655 13.1643Z" fill="#25CAAC"/>
<path d="M13.2464 36.9931C15.1716 38.3359 18.293 38.3359 20.2182 36.9931C22.1434 35.6502 22.1434 33.473 20.2182 32.1301C18.293 30.7873 15.1716 30.7873 13.2464 32.1301C11.3212 33.473 11.3212 35.6502 13.2464 36.9931Z" fill="#25CAAC"/>
<path d="M31.9011 21.9177C34.2114 23.5291 37.9571 23.5291 40.2673 21.9177C42.5776 20.3063 42.5776 17.6936 40.2673 16.0822C37.9571 14.4707 34.2114 14.4707 31.9011 16.0822C29.5909 17.6936 29.5909 20.3063 31.9011 21.9177Z" fill="#25CAAC"/>
<path d="M21.7322 29.6983C24.0425 31.3098 27.7881 31.3098 30.0984 29.6983C32.4086 28.0869 32.4086 25.4743 30.0984 23.8628C27.7881 22.2514 24.0425 22.2514 21.7322 23.8628C19.422 25.4743 19.422 28.0869 21.7322 29.6983Z" fill="#25CAAC"/>
</g>
<defs>
<clipPath id="clip0_98_142">
<rect width="42" height="38" fill="white"/>
</clipPath>
</defs>
</svg>
